<?xml version="1.0" encoding="UTF-8" standalone="no"?>
<!DOCTYPE svg PUBLIC "-//W3C//DTD SVG 1.1//EN"
 "http://www.w3.org/Graphics/SVG/1.1/DTD/svg11.dtd">
<!-- Generated by graphviz version 2.40.1 (20161225.0304)
 -->
<!-- Title: dependency&#45;cruiser output Pages: 1 -->
<svg width="502pt" height="194pt"
 viewBox="0.00 0.00 502.00 194.00" xmlns="http://www.w3.org/2000/svg" xmlns:xlink="http://www.w3.org/1999/xlink">
<g id="graph0" class="graph" transform="scale(1 1) rotate(0) translate(4 190)">
<title>dependency&#45;cruiser output</title>
<polygon fill="#ffffff" stroke="transparent" points="-4,4 -4,-190 498,-190 498,4 -4,4"/>
<g id="clust1" class="cluster">
<title>cluster_src</title>
<path fill="#ffffff" stroke="#000000" stroke-width="2" d="M20,-8C20,-8 474,-8 474,-8 480,-8 486,-14 486,-20 486,-20 486,-166 486,-166 486,-172 480,-178 474,-178 474,-178 20,-178 20,-178 14,-178 8,-172 8,-166 8,-166 8,-20 8,-20 8,-14 14,-8 20,-8"/>
<text text-anchor="middle" x="247" y="-166.8" font-family="Helvetica,sans-Serif" font-weight="bold" font-size="9.00" fill="#000000">src</text>
</g>
<!-- src/App.css -->
<g id="node1" class="node">
<title>src/App.css</title>
<g id="a_node1"><a xlink:href="src/App.css" xlink:title="App.css">
<path fill="#ffffcc" stroke="#000000" d="M255,-74C255,-74 213,-74 213,-74 210,-74 207,-71 207,-68 207,-68 207,-62 207,-62 207,-59 210,-56 213,-56 213,-56 255,-56 255,-56 258,-56 261,-59 261,-62 261,-62 261,-68 261,-68 261,-71 258,-74 255,-74"/>
<text text-anchor="middle" x="234" y="-62.8" font-family="Helvetica,sans-Serif" font-size="9.00" fill="#000000">App.css</text>
</a>
</g>
</g>
<!-- src/App.js -->
<g id="node2" class="node">
<title>src/App.js</title>
<g id="a_node2"><a xlink:href="src/App.js" xlink:title="App.js">
<path fill="#ffffcc" stroke="#000000" d="M162,-85C162,-85 120,-85 120,-85 117,-85 114,-82 114,-79 114,-79 114,-73 114,-73 114,-70 117,-67 120,-67 120,-67 162,-67 162,-67 165,-67 168,-70 168,-73 168,-73 168,-79 168,-79 168,-82 165,-85 162,-85"/>
<text text-anchor="middle" x="141" y="-73.8" font-family="Helvetica,sans-Serif" font-size="9.00" fill="#000000">App.js</text>
</a>
</g>
</g>
<!-- src/App.js&#45;&gt;src/App.css -->
<g id="edge1" class="edge">
<title>src/App.js&#45;&gt;src/App.css</title>
<path fill="none" stroke="#000000" stroke-width="2" stroke-opacity="0.200000" d="M168.4001,-72.7591C178.5224,-71.5619 190.1063,-70.1917 200.6949,-68.9393"/>
<polygon fill="#000000" fill-opacity="0.200000" stroke="#000000" stroke-width="2" stroke-opacity="0.200000" points="201.084,-71.008 206.7958,-68.2177 200.5906,-66.8371 201.084,-71.008"/>
</g>
<!-- src/YahtzeeApp.js -->
<g id="node3" class="node">
<title>src/YahtzeeApp.js</title>
<g id="a_node3"><a xlink:href="src/YahtzeeApp.js" xlink:title="YahtzeeApp.js">
<path fill="#ffffcc" stroke="#000000" d="M266,-104C266,-104 202,-104 202,-104 199,-104 196,-101 196,-98 196,-98 196,-92 196,-92 196,-89 199,-86 202,-86 202,-86 266,-86 266,-86 269,-86 272,-89 272,-92 272,-92 272,-98 272,-98 272,-101 269,-104 266,-104"/>
<text text-anchor="middle" x="234" y="-92.8" font-family="Helvetica,sans-Serif" font-size="9.00" fill="#000000">YahtzeeApp.js</text>
</a>
</g>
</g>
<!-- src/App.js&#45;&gt;src/YahtzeeApp.js -->
<g id="edge2" class="edge">
<title>src/App.js&#45;&gt;src/YahtzeeApp.js</title>
<path fill="none" stroke="#000000" stroke-width="2" stroke-opacity="0.200000" d="M168.4001,-81.5979C175.0975,-82.9662 182.4348,-84.4652 189.7002,-85.9495"/>
<polygon fill="#000000" fill-opacity="0.200000" stroke="#000000" stroke-width="2" stroke-opacity="0.200000" points="189.4718,-88.0461 195.7707,-87.1897 190.3125,-83.9311 189.4718,-88.0461"/>
</g>
<!-- src/Dice.js -->
<g id="node5" class="node">
<title>src/Dice.js</title>
<g id="a_node5"><a xlink:href="src/Dice.js" xlink:title="Dice.js">
<path fill="#ffffcc" stroke="#000000" d="M354.5,-34C354.5,-34 312.5,-34 312.5,-34 309.5,-34 306.5,-31 306.5,-28 306.5,-28 306.5,-22 306.5,-22 306.5,-19 309.5,-16 312.5,-16 312.5,-16 354.5,-16 354.5,-16 357.5,-16 360.5,-19 360.5,-22 360.5,-22 360.5,-28 360.5,-28 360.5,-31 357.5,-34 354.5,-34"/>
<text text-anchor="middle" x="333.5" y="-22.8" font-family="Helvetica,sans-Serif" font-size="9.00" fill="#000000">Dice.js</text>
</a>
</g>
</g>
<!-- src/YahtzeeApp.js&#45;&gt;src/Dice.js -->
<g id="edge6" class="edge">
<title>src/YahtzeeApp.js&#45;&gt;src/Dice.js</title>
<path fill="none" stroke="#000000" stroke-width="2" stroke-opacity="0.200000" d="M264.6205,-85.855C267.3371,-84.209 269.8624,-82.2737 272,-80 284.8038,-66.3804 271.6879,-53.1233 285,-40 289.3308,-35.7306 294.8504,-32.673 300.6034,-30.4841"/>
<polygon fill="#000000" fill-opacity="0.200000" stroke="#000000" stroke-width="2" stroke-opacity="0.200000" points="301.3588,-32.4462 306.3988,-28.572 300.0429,-28.4577 301.3588,-32.4462"/>
</g>
<!-- src/HighScoresTable.js -->
<g id="node6" class="node">
<title>src/HighScoresTable.js</title>
<g id="a_node6"><a xlink:href="src/HighScoresTable.js" xlink:title="HighScoresTable.js">
<path fill="#ffffcc" stroke="#000000" d="M376,-64C376,-64 291,-64 291,-64 288,-64 285,-61 285,-58 285,-58 285,-52 285,-52 285,-49 288,-46 291,-46 291,-46 376,-46 376,-46 379,-46 382,-49 382,-52 382,-52 382,-58 382,-58 382,-61 379,-64 376,-64"/>
<text text-anchor="middle" x="333.5" y="-52.8" font-family="Helvetica,sans-Serif" font-size="9.00" fill="#000000">HighScoresTable.js</text>
</a>
</g>
</g>
<!-- src/YahtzeeApp.js&#45;&gt;src/HighScoresTable.js -->
<g id="edge7" class="edge">
<title>src/YahtzeeApp.js&#45;&gt;src/HighScoresTable.js</title>
<path fill="none" stroke="#000000" stroke-width="2" stroke-opacity="0.200000" d="M259.8027,-85.9502C263.9735,-84.1673 268.1748,-82.169 272,-80 278.341,-76.4044 278.527,-73.352 285,-70 287.6023,-68.6524 290.3468,-67.4018 293.1527,-66.2458"/>
<polygon fill="#000000" fill-opacity="0.200000" stroke="#000000" stroke-width="2" stroke-opacity="0.200000" points="294.1277,-68.1207 298.9723,-64.0049 292.6184,-64.2013 294.1277,-68.1207"/>
</g>
<!-- src/ScoreBoardOne.js -->
<g id="node7" class="node">
<title>src/ScoreBoardOne.js</title>
<g id="a_node7"><a xlink:href="src/ScoreBoardOne.js" xlink:title="ScoreBoardOne.js">
<path fill="#ffffcc" stroke="#000000" d="M373.5,-138C373.5,-138 293.5,-138 293.5,-138 290.5,-138 287.5,-135 287.5,-132 287.5,-132 287.5,-126 287.5,-126 287.5,-123 290.5,-120 293.5,-120 293.5,-120 373.5,-120 373.5,-120 376.5,-120 379.5,-123 379.5,-126 379.5,-126 379.5,-132 379.5,-132 379.5,-135 376.5,-138 373.5,-138"/>
<text text-anchor="middle" x="333.5" y="-126.8" font-family="Helvetica,sans-Serif" font-size="9.00" fill="#000000">ScoreBoardOne.js</text>
</a>
</g>
</g>
<!-- src/YahtzeeApp.js&#45;&gt;src/ScoreBoardOne.js -->
<g id="edge9" class="edge">
<title>src/YahtzeeApp.js&#45;&gt;src/ScoreBoardOne.js</title>
<path fill="none" stroke="#000000" stroke-width="2" stroke-opacity="0.200000" d="M260.4029,-104.0221C272.8846,-108.2872 287.9019,-113.4187 301.0696,-117.9182"/>
<polygon fill="#000000" fill-opacity="0.200000" stroke="#000000" stroke-width="2" stroke-opacity="0.200000" points="300.6169,-119.9827 306.9737,-119.9357 301.9751,-116.0084 300.6169,-119.9827"/>
</g>
<!-- src/Scoring.js -->
<g id="node8" class="node">
<title>src/Scoring.js</title>
<g id="a_node8"><a xlink:href="src/Scoring.js" xlink:title="Scoring.js">
<path fill="#ffffcc" stroke="#000000" d="M459,-117C459,-117 414,-117 414,-117 411,-117 408,-114 408,-111 408,-111 408,-105 408,-105 408,-102 411,-99 414,-99 414,-99 459,-99 459,-99 462,-99 465,-102 465,-105 465,-105 465,-111 465,-111 465,-114 462,-117 459,-117"/>
<text text-anchor="middle" x="436.5" y="-105.8" font-family="Helvetica,sans-Serif" font-size="9.00" fill="#000000">Scoring.js</text>
</a>
</g>
</g>
<!-- src/YahtzeeApp.js&#45;&gt;src/Scoring.js -->
<g id="edge10" class="edge">
<title>src/YahtzeeApp.js&#45;&gt;src/Scoring.js</title>
<path fill="none" stroke="#000000" stroke-width="2" stroke-opacity="0.200000" d="M272.1368,-98.9278C276.4728,-99.3182 280.8304,-99.6857 285,-100 324.9678,-103.0129 370.9522,-105.2707 401.6774,-106.6065"/>
<polygon fill="#000000" fill-opacity="0.200000" stroke="#000000" stroke-width="2" stroke-opacity="0.200000" points="401.9101,-108.7183 407.9946,-106.8775 402.0901,-104.5222 401.9101,-108.7183"/>
</g>
<!-- src/YahtzeeApp.css -->
<g id="node9" class="node">
<title>src/YahtzeeApp.css</title>
<g id="a_node9"><a xlink:href="src/YahtzeeApp.css" xlink:title="YahtzeeApp.css">
<path fill="#ffffcc" stroke="#000000" d="M472,-150C472,-150 401,-150 401,-150 398,-150 395,-147 395,-144 395,-144 395,-138 395,-138 395,-135 398,-132 401,-132 401,-132 472,-132 472,-132 475,-132 478,-135 478,-138 478,-138 478,-144 478,-144 478,-147 475,-150 472,-150"/>
<text text-anchor="middle" x="436.5" y="-138.8" font-family="Helvetica,sans-Serif" font-size="9.00" fill="#000000">YahtzeeApp.css</text>
</a>
</g>
</g>
<!-- src/YahtzeeApp.js&#45;&gt;src/YahtzeeApp.css -->
<g id="edge11" class="edge">
<title>src/YahtzeeApp.js&#45;&gt;src/YahtzeeApp.css</title>
<path fill="none" stroke="#000000" stroke-width="2" stroke-opacity="0.200000" d="M239.9555,-104.0005C248.3651,-115.7962 264.9529,-135.9301 285,-144 318.632,-157.5385 359.9583,-155.6312 390.9483,-150.9846"/>
<polygon fill="#000000" fill-opacity="0.200000" stroke="#000000" stroke-width="2" stroke-opacity="0.200000" points="391.4071,-153.0381 397.0032,-150.0225 390.7479,-148.8902 391.4071,-153.0381"/>
</g>
<!-- src/localStorageUtils.js -->
<g id="node10" class="node">
<title>src/localStorageUtils.js</title>
<g id="a_node10"><a xlink:href="src/localStorageUtils.js" xlink:title="localStorageUtils.js">
<path fill="#ffffcc" stroke="#000000" d="M375,-94C375,-94 292,-94 292,-94 289,-94 286,-91 286,-88 286,-88 286,-82 286,-82 286,-79 289,-76 292,-76 292,-76 375,-76 375,-76 378,-76 381,-79 381,-82 381,-82 381,-88 381,-88 381,-91 378,-94 375,-94"/>
<text text-anchor="middle" x="333.5" y="-82.8" font-family="Helvetica,sans-Serif" font-size="9.00" fill="#000000">localStorageUtils.js</text>
</a>
</g>
</g>
<!-- src/YahtzeeApp.js&#45;&gt;src/localStorageUtils.js -->
<g id="edge8" class="edge">
<title>src/YahtzeeApp.js&#45;&gt;src/localStorageUtils.js</title>
<path fill="none" stroke="#000000" stroke-width="2" stroke-opacity="0.200000" d="M272.1847,-91.1623C274.7126,-90.9083 277.2826,-90.65 279.8666,-90.3903"/>
<polygon fill="#000000" fill-opacity="0.200000" stroke="#000000" stroke-width="2" stroke-opacity="0.200000" points="280.1485,-92.4726 285.9083,-89.7831 279.7284,-88.2937 280.1485,-92.4726"/>
</g>
<!-- src/App.test.js -->
<g id="node4" class="node">
<title>src/App.test.js</title>
<g id="a_node4"><a xlink:href="src/App.test.js" xlink:title="App.test.js">
<path fill="#ffffcc" stroke="#000000" d="M74.5,-85C74.5,-85 27.5,-85 27.5,-85 24.5,-85 21.5,-82 21.5,-79 21.5,-79 21.5,-73 21.5,-73 21.5,-70 24.5,-67 27.5,-67 27.5,-67 74.5,-67 74.5,-67 77.5,-67 80.5,-70 80.5,-73 80.5,-73 80.5,-79 80.5,-79 80.5,-82 77.5,-85 74.5,-85"/>
<text text-anchor="middle" x="51" y="-73.8" font-family="Helvetica,sans-Serif" font-size="9.00" fill="#000000">App.test.js</text>
</a>
</g>
</g>
<!-- src/App.test.js&#45;&gt;src/App.js -->
<g id="edge3" class="edge">
<title>src/App.test.js&#45;&gt;src/App.js</title>
<path fill="none" stroke="#000000" stroke-width="2" stroke-opacity="0.200000" d="M80.9687,-76C89.5274,-76 98.9057,-76 107.653,-76"/>
<polygon fill="#000000" fill-opacity="0.200000" stroke="#000000" stroke-width="2" stroke-opacity="0.200000" points="107.8903,-78.1001 113.8902,-76 107.8902,-73.9001 107.8903,-78.1001"/>
</g>
<!-- src/ScoreBoardOne.js&#45;&gt;src/Scoring.js -->
<g id="edge4" class="edge">
<title>src/ScoreBoardOne.js&#45;&gt;src/Scoring.js</title>
<path fill="none" stroke="#000000" stroke-width="2" stroke-opacity="0.200000" d="M377.779,-119.9722C385.7021,-118.3569 393.8578,-116.694 401.4759,-115.1408"/>
<polygon fill="#000000" fill-opacity="0.200000" stroke="#000000" stroke-width="2" stroke-opacity="0.200000" points="402.2722,-117.1218 407.7317,-113.8654 401.4331,-113.0064 402.2722,-117.1218"/>
</g>
<!-- src/ScoreBoardOne.js&#45;&gt;src/YahtzeeApp.css -->
<g id="edge5" class="edge">
<title>src/ScoreBoardOne.js&#45;&gt;src/YahtzeeApp.css</title>
<path fill="none" stroke="#000000" stroke-width="2" stroke-opacity="0.200000" d="M379.5773,-134.3682C382.5668,-134.7165 385.5809,-135.0677 388.5788,-135.4169"/>
<polygon fill="#000000" fill-opacity="0.200000" stroke="#000000" stroke-width="2" stroke-opacity="0.200000" points="388.4937,-137.5212 394.6964,-136.1297 388.9798,-133.3494 388.4937,-137.5212"/>
</g>
<!-- src/index.css -->
<g id="node11" class="node">
<title>src/index.css</title>
<g id="a_node11"><a xlink:href="src/index.css" xlink:title="index.css">
<path fill="#ffffcc" stroke="#000000" d="M162.5,-115C162.5,-115 119.5,-115 119.5,-115 116.5,-115 113.5,-112 113.5,-109 113.5,-109 113.5,-103 113.5,-103 113.5,-100 116.5,-97 119.5,-97 119.5,-97 162.5,-97 162.5,-97 165.5,-97 168.5,-100 168.5,-103 168.5,-103 168.5,-109 168.5,-109 168.5,-112 165.5,-115 162.5,-115"/>
<text text-anchor="middle" x="141" y="-103.8" font-family="Helvetica,sans-Serif" font-size="9.00" fill="#000000">index.css</text>
</a>
</g>
</g>
<!-- src/index.js -->
<g id="node12" class="node">
<title>src/index.js</title>
<g id="a_node12"><a xlink:href="src/index.js" xlink:title="index.js">
<path fill="#ffffcc" stroke="#000000" d="M72,-115C72,-115 30,-115 30,-115 27,-115 24,-112 24,-109 24,-109 24,-103 24,-103 24,-100 27,-97 30,-97 30,-97 72,-97 72,-97 75,-97 78,-100 78,-103 78,-103 78,-109 78,-109 78,-112 75,-115 72,-115"/>
<text text-anchor="middle" x="51" y="-103.8" font-family="Helvetica,sans-Serif" font-size="9.00" fill="#000000">index.js</text>
</a>
</g>
</g>
<!-- src/index.js&#45;&gt;src/App.js -->
<g id="edge12" class="edge">
<title>src/index.js&#45;&gt;src/App.js</title>
<path fill="none" stroke="#000000" stroke-width="2" stroke-opacity="0.200000" d="M78.003,-96.999C87.4386,-93.8538 98.1381,-90.2873 108.0065,-86.9978"/>
<polygon fill="#000000" fill-opacity="0.200000" stroke="#000000" stroke-width="2" stroke-opacity="0.200000" points="108.677,-88.988 113.705,-85.0983 107.3488,-85.0035 108.677,-88.988"/>
</g>
<!-- src/index.js&#45;&gt;src/index.css -->
<g id="edge13" class="edge">
<title>src/index.js&#45;&gt;src/index.css</title>
<path fill="none" stroke="#000000" stroke-width="2" stroke-opacity="0.200000" d="M78.003,-106C87.1773,-106 97.5465,-106 107.1848,-106"/>
<polygon fill="#000000" fill-opacity="0.200000" stroke="#000000" stroke-width="2" stroke-opacity="0.200000" points="107.3931,-108.1001 113.3931,-106 107.393,-103.9001 107.3931,-108.1001"/>
</g>
<!-- src/serviceWorker.js -->
<g id="node13" class="node">
<title>src/serviceWorker.js</title>
<g id="a_node13"><a xlink:href="src/serviceWorker.js" xlink:title="serviceWorker.js">
<path fill="#ffffcc" stroke="#000000" d="M177,-145C177,-145 105,-145 105,-145 102,-145 99,-142 99,-139 99,-139 99,-133 99,-133 99,-130 102,-127 105,-127 105,-127 177,-127 177,-127 180,-127 183,-130 183,-133 183,-133 183,-139 183,-139 183,-142 180,-145 177,-145"/>
<text text-anchor="middle" x="141" y="-133.8" font-family="Helvetica,sans-Serif" font-size="9.00" fill="#000000">serviceWorker.js</text>
</a>
</g>
</g>
<!-- src/index.js&#45;&gt;src/serviceWorker.js -->
<g id="edge14" class="edge">
<title>src/index.js&#45;&gt;src/serviceWorker.js</title>
<path fill="none" stroke="#000000" stroke-width="2" stroke-opacity="0.200000" d="M78.003,-115.001C87.4386,-118.1462 98.1381,-121.7127 108.0065,-125.0022"/>
<polygon fill="#000000" fill-opacity="0.200000" stroke="#000000" stroke-width="2" stroke-opacity="0.200000" points="107.3488,-126.9965 113.705,-126.9017 108.677,-123.012 107.3488,-126.9965"/>
</g>
<!-- src/setupTests.js -->
<g id="node14" class="node">
<title>src/setupTests.js</title>
<g id="a_node14"><a xlink:href="src/setupTests.js" xlink:title="setupTests.js">
<path fill="#ccffcc" stroke="#000000" d="M80,-48C80,-48 22,-48 22,-48 19,-48 16,-45 16,-42 16,-42 16,-36 16,-36 16,-33 19,-30 22,-30 22,-30 80,-30 80,-30 83,-30 86,-33 86,-36 86,-36 86,-42 86,-42 86,-45 83,-48 80,-48"/>
<text text-anchor="middle" x="51" y="-36.8" font-family="Helvetica,sans-Serif" font-size="9.00" fill="#000000">setupTests.js</text>
</a>
</g>
</g>
</g>
</svg>
